# xmcd CD database file
#
# Track frame offsets:
#	150
#	16307
#	29002
#	48387
#	69260
#	79435
#	92265
#	99587
#	112765
#	138730
#	158945
#	171285
#	195495
#	216697
#
# Disc length: 3197 seconds
#
# Revision: 0
# Processed by: cddbd v1.4PL0 Copyright (c) Steve Scherf et al.
# Submitted via: CDex 1.51
#
DISCID=c00c7b0e
DTITLE=Romantic Orchestra - spielt John Denver
DYEAR=1900
DGENRE=Country
TTITLE0=Take Me Home Country Roads
TTITLE1=Alaska And Me
TTITLE2=Rocky Mountain High
TTITLE3=My Sweet Lady
TTITLE4=Grandma's Feather Bed
TTITLE5=Fly Away
TTITLE6=Like To Deal With The Ladies
TTITLE7=Annie's Song
TTITLE8=Amazon
TTITLE9=Sunshine Of My Shoulders
TTITLE10=Thank God I'm A Country Boy
TTITLE11=Leaving On A Jetplane
TTITLE12=Chained To The Wheel
TTITLE13=Back Home Again
EXTD=
EXTT0=
EXTT1=
EXTT2=
EXTT3=
EXTT4=
EXTT5=
EXTT6=
EXTT7=
EXTT8=
EXTT9=
EXTT10=
EXTT11=
EXTT12=
EXTT13=
PLAYORDER=
